<svg xmlns="http://www.w3.org/2000/svg" width="800" height="500" viewBox="0 0 800 500">
  <defs>
    <linearGradient id="g" x1="0" y1="0" x2="1" y2="1">
      <stop offset="0%" stop-color="#a855f7"/>
      <stop offset="100%" stop-color="#312e81"/>
    </linearGradient>
  </defs>
  <rect width="800" height="500" fill="url(#g)"/>
  <rect x="170" y="170" width="460" height="170" rx="18" fill="#0f172a" opacity="0.78"/>
  <g fill="#e9d5ff">
    <rect x="200" y="200" width="52" height="32" rx="6"/>
    <rect x="260" y="200" width="52" height="32" rx="6"/>
    <rect x="320" y="200" width="52" height="32" rx="6"/>
    <rect x="380" y="200" width="52" height="32" rx="6"/>
    <rect x="440" y="200" width="52" height="32" rx="6"/>
    <rect x="500" y="200" width="52" height="32" rx="6"/>
    <rect x="200" y="240" width="112" height="32" rx="6"/>
    <rect x="320" y="240" width="112" height="32" rx="6"/>
    <rect x="440" y="240" width="112" height="32" rx="6"/>
    <rect x="200" y="280" width="352" height="32" rx="6"/>
  </g>
  <text x="400" y="430" text-anchor="middle" font-family="Arial" font-size="48" fill="#f3e8ff">Arc Mechanical Keys</text>
</svg>
